HIERARCHY
ROOT Hips
{
	OFFSET 0.000000 0.000000 0.000000
	CHANNELS 6 Xposition Yposition Zposition Zrotation Yrotation Xrotation 
	JOINT LHipJoint
	{
		OFFSET 0.000000 0.000000 0.000000
		CHANNELS 3 Zrotation Yrotation Xrotation
		JOINT LeftUpLeg
		{
			OFFSET 1.363060 -1.794630 0.839290
			CHANNELS 3 Zrotation Yrotation Xrotation
			JOINT LeftLeg
			{
				OFFSET 2.448110 -6.726130 0.000000
				CHANNELS 3 Zrotation Yrotation Xrotation
				JOINT LeftFoot
				{
					OFFSET 2.562200 -7.039590 0.000000
					CHANNELS 3 Zrotation Yrotation Xrotation
					JOINT LeftToeBase
					{
						OFFSET 0.157640 -0.433110 2.322550
						CHANNELS 3 Zrotation Yrotation Xrotation
						End Site
						{
							OFFSET 0.000000 0.000000 0.000000
						}
					}
				}
			}
		}
	}
	JOINT RHipJoint
	{
		OFFSET 0.000000 0.000000 0.000000
		CHANNELS 3 Zrotation Yrotation Xrotation
		JOINT RightUpLeg
		{
			OFFSET -1.305520 -1.794630 0.839290
			CHANNELS 3 Zrotation Yrotation Xrotation
			JOINT RightLeg
			{
				OFFSET -2.542530 -6.985550 0.000000
				CHANNELS 3 Zrotation Yrotation Xrotation
				JOINT RightFoot
				{
					OFFSET -2.568260 -7.056230 0.000000
					CHANNELS 3 Zrotation Yrotation Xrotation
					JOINT RightToeBase
					{
						OFFSET -0.164730 -0.452590 2.363150
						CHANNELS 3 Zrotation Yrotation Xrotation
						End Site
						{
							OFFSET 0.000000 0.000000 0.000000
						}
					}
				}
			}
		}
	}
	JOINT LowerBack
	{
		OFFSET 0.000000 0.000000 0.000000
		CHANNELS 3 Zrotation Yrotation Xrotation
		JOINT Spine
		{
			OFFSET 0.028270 2.035590 -0.193380
			CHANNELS 3 Zrotation Yrotation Xrotation
			JOINT Spine1
			{
				OFFSET 0.056720 2.048850 -0.042750
				CHANNELS 3 Zrotation Yrotation Xrotation
				JOINT Neck
				{
					OFFSET 0.000000 0.000000 0.000000
					CHANNELS 3 Zrotation Yrotation Xrotation
					JOINT Neck1
					{
						OFFSET -0.054170 1.746240 0.172020
						CHANNELS 3 Zrotation Yrotation Xrotation
						JOINT Head
						{
							OFFSET 0.104070 1.761360 -0.123970
							CHANNELS 3 Zrotation Yrotation Xrotation
							End Site
							{
								OFFSET 0.000000 0.000000 0.000000
							}
						}
					}
				}
				JOINT LeftShoulder
				{
					OFFSET 0.000000 0.000000 0.000000
					CHANNELS 3 Zrotation Yrotation Xrotation
					JOINT LeftArm
					{
						OFFSET 3.362410 1.200890 -0.311210
						CHANNELS 3 Zrotation Yrotation Xrotation
						JOINT LeftForeArm
						{
							OFFSET 4.983000 -0.000000 -0.000000
							CHANNELS 3 Zrotation Yrotation Xrotation
							JOINT LeftHand
							{
								OFFSET 3.483560 -0.000000 -0.000000
								CHANNELS 3 Zrotation Yrotation Xrotation
								JOINT LeftFingerBase
								{
									OFFSET 0.000000 0.000000 0.000000
									CHANNELS 3 Zrotation Yrotation Xrotation
									JOINT LeftHandIndex1
									{
										OFFSET 0.715260 -0.000000 -0.000000
										CHANNELS 3 Zrotation Yrotation Xrotation
										End Site
										{
											OFFSET 0.000000 0.000000 0.000000
										}
									}
								}
								JOINT LThumb
								{
									OFFSET 0.000000 0.000000 0.000000
									CHANNELS 3 Zrotation Yrotation Xrotation
									End Site
									{
										OFFSET 0.000000 0.000000 0.000000
									}
								}
							}
						}
					}
				}
				JOINT RightShoulder
				{
					OFFSET 0.000000 0.000000 0.000000
					CHANNELS 3 Zrotation Yrotation Xrotation
					JOINT RightArm
					{
						OFFSET -3.136600 1.374050 -0.404650
						CHANNELS 3 Zrotation Yrotation Xrotation
						JOINT RightForeArm
						{
							OFFSET -5.241900 -0.000000 -0.000000
							CHANNELS 3 Zrotation Yrotation Xrotation
							JOINT RightHand
							{
								OFFSET -3.444170 -0.000000 -0.000000
								CHANNELS 3 Zrotation Yrotation Xrotation
								JOINT RightFingerBase
								{
									OFFSET 0.000000 0.000000 0.000000
									CHANNELS 3 Zrotation Yrotation Xrotation
									JOINT RightHandIndex1
									{
										OFFSET -0.622530 -0.000000 -0.000000
										CHANNELS 3 Zrotation Yrotation Xrotation
										End Site
										{
											OFFSET 0.000000 0.000000 0.000000
										}
									}
								}
								JOINT RThumb
								{
									OFFSET 0.000000 0.000000 0.000000
									CHANNELS 3 Zrotation Yrotation Xrotation
									End Site
									{
										OFFSET 0.000000 0.000000 0.000000
									}
								}
							}
						}
					}
				}
			}
		}
	}
}
MOTION
Frames: 11
Frame Time: 0.008333
-2.681661 16.123160 -1.755322 30.103918 78.523483 58.300940 -8.874838 -0.220692 -2.990617 -13.087943 1.551031 -42.294999 -2.399396 2.404707 46.261306 2.376719 8.779962 -22.035862 -2.555100 0.000000 -48.435900 10.842308 2.582088 -1.786757 1.125802 2.796390 -48.418595 -0.234238 -4.510365 65.984099 -3.346470 -11.334359 -28.179606 3.934801 0.000000 -10.342500 -0.768001 -0.252416 8.244177 -0.938256 -0.026780 -1.274432 -5.763767 -0.099925 0.085873 10.851845 7.293970 3.678181 -3.288053 -0.323017 2.577457 0.000000 0.000000 0.000000 -7.500079 -2.596742 1.696705 -66.404727 -23.283705 11.119436 -2.617260 -35.186546 -0.023971 9.334248 -1.301566 -0.121953 -0.149846 0.177956 0.000000 0.000000 0.000000 0.000000 0.000000 0.000000 0.000000 15.510617 6.196218 0.583352 70.306924 15.204613 -16.540945 1.236599 20.417986 -0.023234 -14.551220 11.942592 -1.562720 0.094465 -0.175550 -0.000000 0.000000 0.000000 0.000000 0.000000 0.000000 0.000000 
-2.508731 16.219473 -1.705417 27.912226 78.131265 56.281340 -8.931897 -0.154373 -3.027623 -12.824411 2.040973 -40.913334 -2.432502 2.241725 44.415132 2.336495 8.992530 -20.849657 -2.373200 -0.000000 -49.502000 10.636530 2.650118 -1.528410 1.227428 3.266097 -49.186308 -0.056389 -4.310454 63.472539 -3.377180 -11.076925 -27.842805 3.780800 0.000000 -11.574700 -0.377951 -0.416450 8.064706 -0.839897 -0.192992 -1.289863 -5.750462 -0.264883 0.160378 10.882880 7.201986 3.639897 -3.253751 -0.320371 2.574284 0.000000 0.000000 0.000000 -7.483403 -2.570627 1.551981 -67.325385 -24.043243 12.385794 -2.577797 -37.632013 -0.022330 8.233037 -1.425824 -0.117778 -0.147252 0.192982 0.000000 0.000000 0.000000 0.000000 0.000000 0.000000 0.000000 15.364199 6.007533 0.789007 68.515016 14.448306 -18.926112 1.287175 18.781442 -0.022402 -14.944083 11.453111 -1.539341 0.099388 -0.168020 -0.000000 0.000000 0.000000 0.000000 0.000000 0.000000 0.000000 
-2.334049 16.317910 -1.651896 25.826900 77.721023 54.381655 -8.998279 -0.088268 -3.066769 -12.532460 2.547265 -39.567618 -2.445380 2.088010 42.574454 2.278571 9.194764 -19.388474 -2.126700 -0.000000 -50.808600 10.424970 2.696098 -1.254635 1.328412 3.765066 -49.841816 0.124964 -4.084661 60.690168 -3.399368 -10.785110 -27.379762 3.590900 0.000000 -12.949500 0.018195 -0.568330 7.874236 -0.738267 -0.348329 -1.309301 -5.726114 -0.418911 0.225218 10.896218 7.069714 3.595228 -3.218551 -0.317781 2.569830 0.000000 0.000000 0.000000 -7.425691 -2.559078 1.398785 -68.207863 -24.807016 13.628080 -2.521253 -40.010811 -0.021185 7.436935 -1.615610 -0.120009 -0.145333 0.209098 0.000000 0.000000 0.000000 0.000000 0.000000 0.000000 0.000000 15.198822 5.791175 0.988587 66.701725 13.686297 -21.049005 1.339503 17.271265 -0.021641 -15.194205 10.922928 -1.492862 0.103647 -0.161528 -0.000000 0.000000 0.000000 0.000000 0.000000 0.000000 0.000000 
-2.157356 16.417148 -1.594436 23.900227 77.300003 52.658143 -9.074945 -0.020366 -3.107500 -12.221422 3.073918 -38.288762 -2.440405 1.949307 40.783862 2.202072 9.361454 -17.670643 -1.816000 -0.000000 -52.358800 10.210370 2.718696 -0.962833 1.425351 4.278679 -50.394757 0.308319 -3.831967 57.644585 -3.409420 -10.449513 -26.788796 3.364300 -0.000000 -14.319400 0.414139 -0.709762 7.666490 -0.635048 -0.494878 -1.333092 -5.692782 -0.564035 0.284543 10.894342 6.890307 3.539655 -3.184191 -0.315280 2.562832 0.000000 0.000000 0.000000 -7.332149 -2.541779 1.238201 -69.042257 -25.591826 14.869570 -2.450402 -42.319385 -0.020792 6.954846 -1.847636 -0.127743 -0.145085 0.226191 0.000000 0.000000 0.000000 0.000000 0.000000 0.000000 0.000000 15.026065 5.538369 1.178956 64.874414 12.921527 -22.884014 1.396487 15.893125 -0.020880 -15.284248 10.341702 -1.422182 0.107386 -0.155812 -0.000000 0.000000 0.000000 0.000000 0.000000 0.000000 0.000000 
-1.978692 16.515844 -1.532690 22.177723 76.875337 51.157499 -9.161974 0.051557 -3.150365 -11.902601 3.628115 -37.102480 -2.422376 1.830344 39.083302 2.105538 9.456493 -15.728551 -1.447400 -0.000000 -54.148300 9.996730 2.717332 -0.650505 1.513301 4.791370 -50.857729 0.492409 -3.551801 54.353758 -3.402816 -10.060065 -26.071372 3.102400 0.000000 -15.547401 0.801487 -0.842742 7.436483 -0.531867 -0.634965 -1.362714 -5.650068 -0.702692 0.337110 10.876625 6.662736 3.474564 -3.150882 -0.312896 2.553779 0.000000 0.000000 0.000000 -7.195893 -2.534330 1.070848 -69.825003 -26.369741 16.086918 -2.365862 -44.576435 -0.021298 6.760673 -2.102228 -0.140578 -0.146899 0.244137 0.000000 0.000000 0.000000 0.000000 0.000000 0.000000 0.000000 14.846657 5.244937 1.359782 63.048187 12.164581 -24.463590 1.460631 14.623127 -0.020032 -15.188733 9.734898 -1.330701 0.110590 -0.150811 -0.000000 0.000000 0.000000 0.000000 0.000000 0.000000 0.000000 
-1.798021 16.612781 -1.466285 20.690398 76.453004 49.912711 -9.258547 0.129161 -3.196478 -11.586960 4.216941 -36.028224 -2.397600 1.734066 37.501784 1.987521 9.438892 -13.603295 -1.035100 0.000000 -56.163601 9.788992 2.692195 -0.315601 1.587174 5.288858 -51.246099 0.675584 -3.243647 50.841813 -3.374588 -9.612191 -25.219502 2.806500 -0.000000 -16.644100 1.170679 -0.969371 7.180960 -0.431475 -0.770917 -1.398205 -5.601963 -0.837167 0.386806 10.850743 6.392155 3.397155 -3.120722 -0.310685 2.541766 0.000000 0.000000 0.000000 -7.024912 -2.508646 0.901465 -70.546680 -27.169058 17.301554 -2.274207 -46.769098 -0.022742 6.811877 -2.359543 -0.158513 -0.151211 0.262681 0.000000 0.000000 0.000000 0.000000 0.000000 0.000000 0.000000 14.678101 4.916098 1.527522 61.226250 11.395270 -25.730580 1.532775 13.508432 -0.019116 -14.928148 9.065616 -1.218417 0.113471 -0.146131 -0.000000 0.000000 0.000000 0.000000 0.000000 0.000000 0.000000 
-1.615748 16.706702 -1.395011 19.457387 76.037341 48.938591 -9.363652 0.213698 -3.247949 -11.283154 4.847608 -35.073302 -2.372634 1.661984 36.060036 1.846914 9.266789 -11.342379 -0.602100 -0.000000 -58.379700 9.592570 2.645014 0.041423 1.643814 5.756824 -51.572951 0.857168 -2.907932 47.148596 -3.321139 -9.106783 -24.243835 2.484800 -0.000001 -17.558900 1.513570 -1.092160 6.901030 -0.334933 -0.905202 -1.440313 -5.545682 -0.970099 0.429976 10.811319 6.080873 3.311835 -3.092210 -0.308618 2.528097 0.000000 0.000000 0.000000 -6.804587 -2.499658 0.729968 -71.209953 -27.940370 18.458162 -2.174946 -48.926115 -0.025021 7.040671 -2.610128 -0.180746 -0.157506 0.281675 0.000000 0.000000 0.000000 0.000000 0.000000 0.000000 0.000000 14.507457 4.550560 1.683904 59.430217 10.643513 -26.789090 1.613601 12.484489 -0.018040 -14.481582 8.408242 -1.096831 0.115833 -0.142002 -0.000000 0.000000 0.000000 0.000000 0.000000 0.000000 0.000000 
-1.432169 16.796536 -1.318750 18.479683 75.630763 48.231785 -9.475863 0.305452 -3.306661 -10.996381 5.523177 -34.235409 -2.353169 1.613758 34.766156 1.683898 8.904214 -8.992633 -0.178000 0.000000 -60.755900 9.412773 2.578997 0.417956 1.682871 6.183305 -51.851756 1.036426 -2.545954 43.322987 -3.240884 -8.554851 -23.157092 2.148100 0.000000 -18.357200 1.823757 -1.213549 6.600932 -0.243652 -1.039973 -1.487926 -5.481999 -1.103638 0.468001 10.758716 5.735301 3.218609 -3.065266 -0.306663 2.512626 0.000000 0.000000 0.000000 -6.535229 -2.499986 0.559149 -71.813021 -28.687521 19.548074 -2.071905 -51.048785 -0.027961 7.378891 -2.844604 -0.206179 -0.165350 0.300898 0.000000 0.000000 0.000000 0.000000 0.000000 0.000000 0.000000 14.334102 4.154448 1.827886 57.669272 9.915308 -27.669555 1.701889 11.544317 -0.016799 -13.868322 7.786009 -0.973342 0.117683 -0.138410 -0.000000 0.000000 0.000000 0.000000 0.000000 0.000000 0.000000 
-1.247561 16.881429 -1.237602 17.741972 75.234518 47.771533 -9.593493 0.403549 -3.373229 -10.726462 6.240398 -33.502844 -2.342875 1.587271 33.616421 1.501066 8.328734 -6.596206 0.203900 0.000000 -63.231600 9.254254 2.498550 0.808692 1.709108 6.558352 -52.094589 1.212439 -2.160652 39.423618 -3.135360 -7.978200 -21.977204 1.809300 0.000000 -19.182600 2.097261 -1.334940 6.287135 -0.159460 -1.176191 -1.539266 -5.415802 -1.238673 0.503647 10.701719 5.372109 3.116881 -3.041413 -0.304855 2.494910 0.000000 0.000000 0.000000 -6.229086 -2.476816 0.395502 -72.351270 -29.448048 20.597360 -1.971626 -53.121155 -0.031320 7.764424 -3.051260 -0.232708 -0.174461 0.320056 0.000000 0.000000 0.000000 0.000000 0.000000 0.000000 0.000000 14.172910 3.748276 1.957033 55.943519 9.167352 -28.276505 1.796908 10.772087 -0.015505 -13.148002 7.143872 -0.847451 0.119285 -0.134907 -0.000000 0.000000 0.000000 0.000000 0.000000 0.000000 0.000000 
-1.062516 16.960504 -1.151946 17.217893 74.848282 47.520324 -9.715477 0.506678 -3.447858 -10.468957 6.991771 -32.854782 -2.343037 1.579893 32.604427 1.303735 7.534000 -4.192434 0.511001 -0.000000 -65.723400 9.119295 2.410230 1.204006 1.733480 6.873712 -52.309451 1.384965 -1.757422 35.526670 -3.010518 -7.403895 -20.751620 1.485100 -0.000000 -20.055800 2.336350 -1.458605 5.971087 -0.080806 -1.315413 -1.592139 -5.342270 -1.376822 0.534748 10.627494 4.990307 3.009562 -3.017586 -0.303048 2.475701 0.000000 0.000000 0.000000 -5.876401 -2.458777 0.236701 -72.830291 -30.182192 21.555586 -1.871446 -55.171367 -0.034828 8.133589 -3.231449 -0.258337 -0.183730 0.339088 -0.000000 0.000000 0.000000 0.000000 0.000000 0.000000 0.000000 13.996140 3.328560 2.074230 54.269309 8.455922 -28.778142 1.895551 10.061107 -0.014059 -12.315169 6.597267 -0.733857 0.120382 -0.132085 -0.000000 0.000000 0.000000 0.000000 0.000000 0.000000 0.000000 
-0.877191 17.033194 -1.062272 16.868474 74.471944 47.431985 -9.840285 0.612441 -3.528218 -10.214617 7.761685 -32.267610 -2.352342 1.587543 31.716119 1.100444 6.536192 -1.813245 0.716800 0.000000 -68.124600 9.008332 2.320372 1.592810 1.773413 7.123677 -52.504410 1.553002 -1.343649 31.707897 -2.875617 -6.866096 -19.522245 1.187900 0.000000 -21.119900 2.544851 -1.584610 5.663279 -0.008232 -1.457121 -1.643644 -5.267394 -1.517429 0.564504 10.545785 4.607154 2.895725 -2.995716 -0.301288 2.454405 0.000000 0.000000 0.000000 -5.496781 -2.407235 0.089422 -73.245214 -30.938290 22.462677 -1.776605 -57.181743 -0.038246 8.447806 -3.375720 -0.280666 -0.192950 0.357735 -0.000000 0.000000 0.000000 0.000000 0.000000 0.000000 0.000000 13.821660 2.918186 2.177790 52.639759 7.723123 -29.025428 1.997793 9.524563 -0.012613 -11.445024 6.065967 -0.627960 0.121375 -0.129371 -0.000000 0.000000 0.000000 0.000000 0.000000 0.000000 0.000000 
